#!OML:ASF I:\Random Stuff\random\construction\7_22_03\Session 2\subj1.ASF
:FULLY-SPECIFIED
:DEGREES
870
root -20.7375 17.5854 3.84738 15.6429 27.6932 358.133
lowerback 21.4998 0.758441 4.30651
upperback 6.48694 2.15125 2.37314
thorax -4.86628 1.08364 -0.44451
lowerneck -21.6422 -3.32205 -2.90715
upperneck 28.9398 -6.19828 7.94431
head 13.8392 -1.83552 2.55444
rclavicle -6.44062e-014 7.95139e-016
rhumerus -6.59603 33.3913 -75.178
rradius 48.3803
rwrist 8.61008
rhand -31.6001 25.8864
rfingers 7.12502
rthumb -4.86258 -4.0378
lclavicle -6.44062e-014 7.95139e-016
lhumerus -23.4154 -24.4225 90.4332
lradius 57.7596
lwrist 23.0652
lhand -21.877 56.7179
lfingers 7.12502
lthumb 4.52754 -633.35
rfemur -40.6096 -6.79951 25.9628
rtibia 36.5912
rfoot -14.7482 -1.57649
rtoes -13.7614
lfemur -33.4516 -3.76037 -14.2931
ltibia 30.539
lfoot -14.9814 3.94895
ltoes -30.6821
871
root -20.781 17.5662 3.89713 16.2934 29.117 358.467
lowerback 22.7634 0.799824 4.98384
upperback 6.81287 2.44264 2.53554
thorax -5.12269 1.22755 -0.751944
lowerneck -21.4486 -3.85668 -2.99919
upperneck 27.8285 -6.92054 8.18528
head 13.3966 -2.15542 2.50511
rclavicle -4.13472e-014 -4.37326e-014
rhumerus -4.09308 32.8549 -73.3292
rradius 45.8257
rwrist 9.89905
rhand -31.8147 26.1207
rfingers 7.12502
rthumb -5.06978 -3.79863
lclavicle -4.13472e-014 -4.37326e-014
lhumerus -22.6267 -25.0872 90.2027
lradius 58.3675
lwrist 23.2531
lhand -21.1535 56.6242
lfingers 7.12502
lthumb 5.22616 -633.46
rfemur -41.2397 -4.74674 24.5413
rtibia 33.9313
rfoot -12.9819 -0.776637
rtoes -12.9037
lfemur -34.3674 -5.01941 -13.9864
ltibia 30.689
lfoot -14.9436 3.86509
ltoes -30.5711
872
root -20.8309 17.5456 3.95044 16.7506 30.6134 358.819
lowerback 24.3334 0.522271 5.53173
upperback 7.23136 2.35636 2.92299
thorax -5.45242 1.18916 -0.650105
lowerneck -21.2822 -4.10445 -3.57382
upperneck 26.7873 -7.02479 8.3115
head 12.9661 -2.27799 2.60921
rclavicle -3.26007e-014 -6.36111e-015
rhumerus -1.16378 32.9604 -71.1904
rradius 43.2997
rwrist 11.2285
rhand -32.1065 26.0219
rfingers 7.12502
rthumb -5.35153 -3.89049
lclavicle -3.26007e-014 -6.36111e-015
lhumerus -21.8803 -24.601 89.9551
lradius 59.0439
lwrist 22.9428
lhand -20.4687 56.3139
lfingers 7.12502
lthumb 5.88731 -633.788
rfemur -41.6561 -3.11536 23.0924
rtibia 31.9802
rfoot -10.4848 0.15234
rtoes -12.58
lfemur -35.0454 -6.14665 -13.7178
ltibia 30.7642
lfoot -14.8319 3.60232
ltoes -30.5991
873
root -20.8755 17.5272 4.01681 17.3097 32.0858 359.57
lowerback 25.835 0.429805 6.32616
upperback 7.72731 2.557 3.01329
thorax -5.60476 1.29777 -1.08563
lowerneck -20.7559 -4.62325 -4.00196
upperneck 25.0695 -7.69044 9.02405
head 12.278 -2.58028 2.80489
rclavicle -4.21423e-014 -2.38542e-015
rhumerus 1.17832 31.3861 -69.4995
rradius 40.8368
rwrist 12.7761
rhand -32.4651 25.6065
rfingers 7.12502
rthumb -5.69779 -4.29694
lclavicle -4.21423e-014 -2.38542e-015
lhumerus -21.0672 -25.4658 89.5167
lradius 59.8933
lwrist 22.7166
lhand -20.1385 56.1048
lfingers 7.12502
lthumb 6.20607 -634.006
rfemur -42.1379 -2.01403 21.3915
rtibia 31.0648
rfoot -8.27712 1.24532
rtoes -9.75049
lfemur -35.4618 -7.31834 -13.8636
ltibia 30.7374
lfoot -14.7705 3.36089
ltoes -30.461
874
root -20.9243 17.5093 4.08991 18.2219 33.5974 360.717
lowerback 27.1462 0.183875 6.80587
upperback 8.2368 2.50167 3.22777
thorax -5.66752 1.28897 -1.12807
lowerneck -20.7162 -5.06281 -4.64626
upperneck 23.9919 -8.07414 9.27347
head 11.9219 -2.8121 2.91884
rclavicle -1.74931e-014 5.725e-014
rhumerus 3.63622 29.9857 -67.6901
rradius 38.5192
rwrist 14.1088
rhand -32.9251 25.314
rfingers 7.12502
rthumb -6.14189 -4.57698
lclavicle -1.74931e-014 5.725e-014
lhumerus -20.1698 -25.7806 89.0891
lradius 60.7645
lwrist 22.4784
lhand -19.875 55.9235
lfingers 7.12502
lthumb 6.46047 -634.195
rfemur -42.3965 -2.38668 20.3053
rtibia 31.1475
rfoot -7.53397 -0.209147
rtoes -17.9755
lfemur -35.9831 -8.52337 -14.3097
ltibia 30.6897
lfoot -14.7438 3.01316
ltoes -30.5609
875
root -20.9953 17.4869 4.16306 19.3294 35.3321 361.873
lowerback 28.4516 0.057353 7.72519
upperback 8.74232 2.72688 3.37193
thorax -5.66844 1.42105 -1.58103
lowerneck -20.7869 -5.74946 -5.00469
upperneck 22.6676 -8.92142 9.70377
head 11.5446 -3.20465 2.96725
rclavicle -1.59028e-015 -3.02153e-014
rhumerus 5.62634 27.3669 -66.1296
rradius 36.479
rwrist 15.1383
rhand -33.2859 24.9022
rfingers 7.12502
rthumb -6.4902 -4.9784
lclavicle -1.59028e-015 -3.02153e-014
lhumerus -18.8922 -27.2141 88.6031
lradius 61.5875
lwrist 23.2745
lhand -21.2862 55.5839
lfingers 7.12502
lthumb 5.09802 -634.497
rfemur -42.7338 -3.4594 19.8682
rtibia 31.9346
rfoot -8.84985 -1.23315
rtoes -14.8903
lfemur -36.6617 -8.97503 -14.8403
ltibia 30.3604
lfoot -14.5751 1.80163
ltoes -31.1654
876
root -21.0843 17.4444 4.23545 20.4926 37.4074 362.807
lowerback 29.8293 -0.377369 8.75298
upperback 9.07445 2.67805 3.84358
thorax -5.9127 1.40967 -1.64795
lowerneck -20.6543 -6.3374 -5.60848
upperneck 21.6015 -9.46331 9.73527
head 11.1973 -3.53336 2.97026
rclavicle 6.36111e-015 1.11319e-014
rhumerus 7.63889 25.7947 -64.2399
rradius 34.8275
rwrist 15.6402
rhand -33.4405 24.1082
rfingers 7.12502
rthumb -6.63942 -5.76772
lclavicle 6.36111e-015 1.11319e-014
lhumerus -17.9799 -27.4477 88.427
lradius 62.3078
lwrist 23.2706
lhand -22.2382 55.4645
lfingers 7.12502
lthumb 4.17873 -634.597
rfemur -43.7277 -4.43284 19.7242
rtibia 33.1656
rfoot -9.35061 -2.79584
rtoes -17.1545
lfemur -37.5925 -9.3562 -14.9697
ltibia 29.9025
lfoot -14.0792 1.38039
ltoes -32.029
877
root -21.1254 17.4548 4.32966 22.0105 38.7012 364.658
lowerback 30.7802 -0.601534 9.2992
upperback 9.69595 2.67692 3.97767
thorax -5.61947 1.45584 -1.81552
lowerneck -20.4793 -6.91809 -6.14485
upperneck 20.3091 -10.0877 10.1109
head 10.7962 -3.85999 3.07432
rclavicle -3.97569e-014 -3.33958e-014
rhumerus 9.52001 24.0688 -62.3256
rradius 33.3502
rwrist 16.3594
rhand -33.6628 23.4902
rfingers 7.12502
rthumb -6.85408 -6.37889
lclavicle -3.97569e-014 -3.33958e-014
lhumerus -17.0823 -27.6868 88.2066
lradius 63.0143
lwrist 23.0555
lhand -22.8228 55.1836
lfingers 7.12502
lthumb 3.61421 -634.867
rfemur -44.4679 -5.83344 18.8083
rtibia 34.4349
rfoot -9.60775 -3.64986
rtoes -17.6873
lfemur -37.5812 -8.88316 -16.523
ltibia 29.273
lfoot -14.2771 2.99609
ltoes -35.4887
878
root -21.1905 17.4578 4.4201 23.8475 39.9256 366.3
lowerback 32.1712 -0.913946 9.94177
upperback 9.68206 2.70948 4.07784
thorax -5.58279 1.48523 -1.87215
lowerneck -20.0402 -7.39977 -6.77014
upperneck 18.7888 -10.5708 10.6423
head 10.2803 -4.12979 3.27726
rclavicle -1.27222e-014 1.59028e-015
rhumerus 11.3866 22.7856 -60.3435
rradius 32.0299
rwrist 17.4139
rhand -33.9303 23.1323
rfingers 7.12502
rthumb -7.11226 -6.72819
lclavicle -1.27222e-014 1.59028e-015
lhumerus -16.511 -27.39 88.0695
lradius 63.7584
lwrist 22.5652
lhand -22.6698 54.8869
lfingers 7.12502
lthumb 3.76202 -635.167
rfemur -45.665 -6.81233 18.0915
rtibia 35.6033
rfoot -10.0346 -4.50459
rtoes -17.8604
lfemur -38.0113 -7.82065 -17.7788
ltibia 28.6149
lfoot -14.7262 4.32234
ltoes -36.1015
879
root -21.267 17.4526 4.51456 26.1342 40.9186 368.006
lowerback 33.3715 -0.939644 10.4218
upperback 9.74295 3.02867 4.25073
thorax -5.91692 1.63063 -2.04733
lowerneck -19.8391 -7.96264 -7.14739
upperneck 17.7253 -11.2598 11.1442
head 9.99146 -4.45715 3.39526
rclavicle 3.49861e-014 4.77083e-014
rhumerus 12.7524 21.2283 -58.4392
rradius 30.8039
rwrist 18.7423
rhand -34.253 22.8959
rfingers 7.12502
rthumb -7.42378 -6.95388
lclavicle 3.49861e-014 4.77083e-014
lhumerus -16.2204 -27.4255 88.1146
lradius 64.4182
lwrist 22.0665
lhand -22.3837 54.7142
lfingers 7.12502
lthumb 4.03827 -635.344
rfemur -47.2827 -7.79841 17.5053
rtibia 36.7024
rfoot -10.5974 -5.03965
rtoes -16.0469
lfemur -38.7334 -4.87526 -19.7397
ltibia 27.757
lfoot -15.0454 4.21494
ltoes -36.623
880
root -21.336 17.4447 4.61217 28.9267 41.5902 369.839
lowerback 34.5299 -0.912425 10.6293
upperback 9.58349 3.33914 4.414
thorax -6.36823 1.75009 -2.04754
lowerneck -19.7142 -8.40175 -7.32717
upperneck 16.6495 -11.7451 11.2892
head 9.6612 -4.71907 3.38861
rclavicle -5.08889e-014 5.40694e-014
rhumerus 14.2183 20.0312 -56.3875
rradius 29.6039
rwrist 20.1271
rhand -34.458 22.735
rfingers 7.12502
rthumb -7.62168 -7.10765
lclavicle -5.08889e-014 5.40694e-014
lhumerus -16.2063 -27.1442 88.3414
lradius 65.0139
lwrist 22.3362
lhand -23.1517 54.5225
lfingers 7.12502
lthumb 3.29664 -635.523
rfemur -49.4194 -9.00323 17.0605
rtibia 37.7743
rfoot -10.8905 -5.16732
rtoes -12.9004
lfemur -39.9089 -2.01727 -21.7801
ltibia 27.0367
lfoot -15.153 4.89067
ltoes -35.0105
881
root -21.4002 17.4489 4.71649 31.8444 41.8467 371.633
lowerback 35.4823 -0.754712 10.7469
upperback 9.53259 3.72868 4.50021
thorax -6.7322 1.91065 -2.16318
lowerneck -19.823 -8.77044 -7.18433
upperneck 15.7018 -12.154 11.1028
head 9.36802 -4.95039 3.2261
rclavicle -1.74931e-013 2.70347e-014
rhumerus 15.6151 18.5021 -54.4996
rradius 28.3742
rwrist 21.6508
rhand -34.333 22.5761
rfingers 7.12502
rthumb -7.50103 -7.2709
lclavicle -1.74931e-013 2.70347e-014
lhumerus -16.184 -27.1472 88.4673
lradius 65.4651
lwrist 23.2335
lhand -24.2329 54.6594
lfingers 7.12502
lthumb 2.25241 -635.373
rfemur -51.6621 -9.73078 16.4763
rtibia 38.7257
rfoot -10.994 -5.34714
rtoes -16.2352
lfemur -41.1955 0.850091 -23.8861
ltibia 26.4317
lfoot -15.3132 6.65625
ltoes -32.104
882
root -21.4548 17.4555 4.82173 34.6089 41.9331 373.249
lowerback 36.3666 -0.657277 10.9273
upperback 9.5513 4.0535 4.59881
thorax -6.98797 2.04671 -2.27473
lowerneck -19.7377 -9.14305 -7.39487
upperneck 14.6027 -12.542 11.2904
head 9.04062 -5.16856 3.26025
rclavicle -1.59028e-014 -3.33958e-014
rhumerus 17.1953 16.7222 -52.7773
rradius 27.0133
rwrist 23.166
rhand -33.4182 22.8857
rfingers 7.12502
rthumb -6.61796 -6.99092
lclavicle -1.59028e-014 -3.33958e-014
lhumerus -16.02 -26.94 88.5673
lradius 65.6605
lwrist 24.2157
lhand -24.5366 55.2501
lfingers 7.12502
lthumb 1.95914 -634.779
rfemur -53.8243 -10.4637 16.0622
rtibia 39.5387
rfoot -11.1855 -5.31098
rtoes -15.1726
lfemur -42.3954 3.19162 -25.6602
ltibia 25.922
lfoot -15.9106 9.23809
ltoes -25.8902
883
root -21.4961 17.4603 4.91996 37.2942 42.0645 374.642
lowerback 37.0544 -0.731186 11.1571
upperback 9.62234 4.16839 4.76541
thorax -7.12956 2.09208 -2.26014
lowerneck -19.7429 -9.29982 -7.4949
upperneck 13.7004 -12.6343 11.2536
head 8.74559 -5.25636 3.24863
rclavicle -5.725e-014 -4.13472e-014
rhumerus 19.2327 14.7317 -51.4419
rradius 25.4454
rwrist 24.7368
rhand -33.2107 23.0552
rfingers 7.12502
rthumb -6.41767 -6.8276
lclavicle -5.725e-014 -4.13472e-014
lhumerus -15.9191 -26.3298 88.641
lradius 65.7318
lwrist 25.061
lhand -25.0212 56.1252
lfingers 7.12502
lthumb 1.49114 -633.9
rfemur -55.9884 -11.1249 15.7642
rtibia 40.2485
rfoot -11.0792 -5.20921
rtoes -11.605
lfemur -43.6212 4.7588 -26.7786
ltibia 25.4878
lfoot -14.5201 11.7095
ltoes -26.9541
